<?xml version="1.0" standalone="no"?>
<!DOCTYPE svg PUBLIC "-//W3C//DTD SVG 20010904//EN"
 "http://www.w3.org/TR/2001/REC-SVG-20010904/DTD/svg10.dtd">
<svg version="1.0" xmlns="http://www.w3.org/2000/svg"
 width="287.874162pt" height="287.561230pt" viewBox="0 0 287.874162 287.561230"
 preserveAspectRatio="xMidYMid meet">
<metadata>
Created by Potrace Professional 1.1m
</metadata>
<g transform="translate(-0.067625,287.976267) rotate(-360.00) scale(0.011429,-0.011429)"
fill="#ffffff" stroke="none">
<path d="M12311 25193 c-4653 -98 -8899 -2794 -10987 -6975 -715 -1433 -1145
-2968 -1276 -4557 -56 -676 -56 -1425 0 -2100 216 -2619 1257 -5106 2977
-7114 432 -505 986 -1054 1485 -1471 1367 -1143 2946 -1981 4639 -2462 896
-255 1766 -401 2769 -463 444 -28 1240 -15 1753 28 3943 331 7511 2519 9627
5903 748 1197 1296 2538 1602 3921 391 1771 393 3640 5 5409 -292 1330 -794
2589 -1503 3772 -1095 1824 -2669 3368 -4524 4436 -1645 948 -3461 1504 -5364
1643 -240 18 -810 38 -972 35 -57 -2 -161 -4 -231 -5z m709 -1852 c136 -6 337
-18 446 -26 2009 -160 3927 -881 5548 -2086 289 -215 716 -566 716 -589 -1
-13 -27 -50 -141 -191 -374 -467 -894 -977 -1461 -1433 -1020 -819 -2207
-1511 -3533 -2056 -188 -78 -481 -191 -493 -191 -4 0 -78 126 -164 280 -972
1756 -2169 3648 -3400 5374 -115 161 -262 365 -326 451 -65 87 -120 163 -124
170 -9 13 35 24 323 82 880 177 1781 251 2609 215z m-4936 -1084 c1138 -1592
2203 -3211 3138 -4770 324 -541 790 -1347 790 -1367 0 -18 -805 -217 -1486
-368 -2395 -532 -5008 -860 -7455 -936 -387 -13 -1003 -14 -1002 -3 0 20 97
424 136 570 443 1638 1250 3118 2397 4399 183 204 636 654 837 831 584 515
1151 924 1811 1306 180 104 758 404 777 403 6 0 32 -29 57 -65z m12950 -2987
c1278 -1599 2076 -3557 2281 -5594 30 -302 65 -940 53 -961 -3 -4 -72 7 -155
23 -200 40 -852 148 -1126 187 -2122 301 -4234 356 -5987 153 -167 -19 -220
-22 -226 -13 -5 7 -75 169 -157 359 -207 484 -410 928 -726 1592 l-68 143 206
87 c1467 620 2800 1404 3944 2319 704 563 1377 1224 1801 1768 26 33 50 61 54
61 4 0 52 -56 106 -124z m-7885 -5287 c274 -548 627 -1302 627 -1338 0 -5 -41
-20 -92 -34 -344 -92 -1041 -345 -1530 -555 -2220 -950 -4325 -2552 -6074
-4621 -507 -600 -1009 -1278 -1361 -1841 -55 -88 -104 -164 -108 -168 -16 -16
-403 446 -637 759 -1221 1632 -1949 3567 -2110 5607 -23 297 -38 766 -30 967
l7 174 667 6 c654 6 860 13 1477 45 2691 140 5410 547 7817 1170 245 64 841
229 1003 278 46 14 89 25 95 26 6 0 118 -213 249 -475z m6449 -2474 c1296 -79
2504 -280 3556 -590 l69 -20 -30 -171 c-308 -1767 -1071 -3445 -2202 -4843
-478 -591 -1056 -1167 -1645 -1638 -322 -258 -722 -546 -741 -534 -5 3 -9 14
-9 24 0 56 -152 835 -263 1350 -434 2017 -1023 4062 -1768 6139 l-47 133 65
11 c89 16 432 60 616 79 305 33 553 50 1045 74 149 7 1182 -4 1354 -14z
m-4956 -999 c794 -2118 1461 -4392 1922 -6557 108 -508 246 -1238 235 -1248
-18 -17 -543 -216 -781 -296 -827 -276 -1650 -446 -2483 -513 -2704 -217
-5319 540 -7447 2156 -61 46 -90 74 -86 85 10 31 166 311 254 457 432 716
1018 1468 1670 2147 803 835 1615 1513 2585 2158 621 412 1100 690 1774 1027
523 262 868 418 1370 618 361 145 830 315 850 309 5 -1 66 -156 137 -343z"/>
</g>
</svg>
