<?xml version="1.0" standalone="no"?>
<!DOCTYPE svg PUBLIC "-//W3C//DTD SVG 20010904//EN"
 "http://www.w3.org/TR/2001/REC-SVG-20010904/DTD/svg10.dtd">
<svg version="1.0" xmlns="http://www.w3.org/2000/svg"
 width="60.343176pt" height="60.442809pt" viewBox="0 0 60.343176 60.442809"
 preserveAspectRatio="xMidYMid meet">
<metadata>
Created by Potrace Professional 1.1m
</metadata>
<g transform="translate(-23.830528,61.881782) rotate(-360.00) scale(0.011429,-0.011429)"
fill="#ffffff" stroke="none">
<path d="M4494 5411 c-109 -10 -375 -59 -479 -88 -329 -93 -647 -254 -927
-469 -114 -89 -353 -327 -443 -444 -253 -326 -428 -700 -507 -1080 -47 -227
-54 -299 -53 -574 1 -235 4 -279 29 -419 82 -462 261 -862 547 -1224 84 -107
317 -337 426 -421 641 -497 1446 -677 2233 -499 666 151 1251 563 1634 1151
205 315 330 658 398 1087 18 115 18 549 0 677 -69 491 -246 913 -546 1302 -88
113 -327 352 -443 442 -375 291 -778 464 -1257 540 -100 16 -510 29 -612 19z
m572 -428 c1008 -158 1787 -985 1886 -2005 12 -126 8 -434 -7 -472 -4 -11 -14
-16 -23 -13 -9 4 -59 13 -111 22 -118 19 -270 19 -416 1 -61 -8 -111 -14 -112
-13 -1 1 5 39 14 85 10 57 13 125 10 210 -8 203 -59 358 -177 535 l-62 95 26
110 c60 250 59 470 -2 589 l-29 57 -68 -1 c-175 -4 -375 -92 -527 -233 l-66
-61 -63 20 c-316 99 -700 102 -1004 5 l-70 -22 -67 61 c-152 139 -340 222
-512 228 l-78 3 -30 -57 c-61 -120 -62 -343 -3 -586 l25 -102 -29 -37 c-83
-105 -160 -261 -196 -396 -30 -116 -38 -298 -17 -422 7 -38 10 -70 8 -72 -1
-1 -97 5 -212 14 -227 19 -319 16 -515 -16 -89 -15 -126 -17 -131 -9 -13 22
-22 254 -15 388 42 810 515 1522 1254 1893 192 96 472 181 674 205 54 6 113
13 131 15 66 10 414 -4 514 -19z m-1859 -2510 c98 -9 179 -17 180 -19 2 -1 6
-14 9 -29 l7 -27 -230 5 c-150 2 -256 0 -302 -8 -73 -13 -211 -58 -280 -91
-22 -10 -42 -16 -46 -12 -4 4 -13 38 -20 75 l-13 68 49 11 c184 43 370 51 646
27z m3644 -15 l84 -17 -3 -31 c-2 -18 -5 -33 -6 -34 -1 -1 -49 8 -107 21 -90
20 -135 23 -333 23 -172 0 -228 3 -228 12 0 17 19 22 142 35 200 21 311 19
451 -9z m-207 -85 c91 -10 251 -39 267 -48 4 -3 -7 -56 -23 -118 -167 -639
-604 -1163 -1213 -1458 l-115 -56 -7 229 c-6 242 -16 302 -69 433 -45 111
-106 207 -183 288 l-72 76 55 7 c218 29 482 133 643 253 142 107 215 198 306
382 1 2 63 7 137 11 74 5 144 9 156 10 11 1 64 -3 118 -9z m-3258 -28 c40 -5
45 -10 94 -95 150 -254 462 -446 837 -513 54 -10 100 -19 101 -20 3 -3 -95
-111 -176 -195 -72 -72 -120 -91 -278 -106 -273 -26 -359 10 -538 227 -96 115
-136 146 -222 173 -73 23 -164 28 -176 10 -4 -7 33 -49 89 -101 99 -91 168
-185 258 -349 57 -104 103 -155 176 -195 90 -49 143 -57 358 -57 l197 0 0
-252 0 -252 -108 37 c-681 235 -1235 820 -1424 1503 l-21 74 60 27 c91 41 219
80 295 91 68 9 398 5 478 -7z m1508 -1248 c34 -21 41 -77 41 -313 l0 -235 -39
-7 c-22 -3 -69 -6 -105 -6 l-66 0 0 256 0 256 27 32 c34 41 91 48 142 17z
m-406 -139 c15 -14 27 -39 27 -54 2 -102 -2 -353 -5 -356 -5 -5 -168 17 -190
26 -12 5 -15 35 -15 144 0 76 3 155 7 177 15 92 113 127 176 63z m830 -5 c26
-30 27 -36 27 -182 0 -83 -2 -151 -4 -151 -3 0 -42 -10 -87 -21 -131 -33 -120
-46 -119 139 0 186 11 225 72 245 48 15 81 7 111 -30z"/>
</g>
</svg>
