<?xml version="1.0" standalone="no"?>
<!DOCTYPE svg PUBLIC "-//W3C//DTD SVG 20010904//EN"
 "http://www.w3.org/TR/2001/REC-SVG-20010904/DTD/svg10.dtd">
<svg version="1.0" xmlns="http://www.w3.org/2000/svg"
 width="159.886293pt" height="137.129987pt" viewBox="0 0 159.886293 137.129987"
 preserveAspectRatio="xMidYMid meet">
<metadata>
Created by Potrace Professional 1.1m
</metadata>
<g transform="translate(-15.300000,165.338934) rotate(-360.00) scale(0.011429,-0.011429)"
fill="#ffffff" stroke="none">
<path d="M10746 14453 c-145 -31 -244 -109 -339 -267 -34 -55 -615 -1011
-1291 -2124 -677 -1113 -1230 -2027 -1230 -2031 0 -15 2775 -5442 2783 -5442
4 0 43 57 86 128 43 71 1085 1786 2316 3812 1231 2026 2238 3692 2238 3702 0
11 -8 27 -18 36 -10 9 -976 501 -2146 1093 -1578 799 -2144 1081 -2194 1093
-81 19 -120 19 -205 0z"/>
<path d="M1554 14396 c-85 -26 -153 -92 -192 -189 l-23 -58 0 -4625 0 -4626
32 -91 c64 -177 189 -336 329 -417 125 -73 3687 -1871 3748 -1893 233 -81 441
13 518 233 l24 68 0 4730 0 4729 -2079 1053 c-1143 580 -2109 1063 -2145 1075
-67 21 -163 26 -212 11z"/>
<path d="M13295 7613 c-1117 -1838 -2029 -3342 -2027 -3344 2 -2 389 -198 860
-436 470 -239 1222 -619 1669 -846 448 -227 851 -425 896 -440 317 -107 569 1
626 267 9 44 11 1042 9 4099 l-3 4041 -2030 -3341z"/>
<path d="M6668 8766 l0 -2167 207 -107 c692 -354 2767 -1400 2771 -1396 4 4
-2960 5820 -2973 5833 -3 3 -5 -970 -5 -2163z"/>
</g>
</svg>
