<?xml version="1.0" standalone="no"?>
<!DOCTYPE svg PUBLIC "-//W3C//DTD SVG 20010904//EN"
 "http://www.w3.org/TR/2001/REC-SVG-20010904/DTD/svg10.dtd">
<svg version="1.0" xmlns="http://www.w3.org/2000/svg"
 width="61.320762pt" height="61.323146pt" viewBox="0 0 61.320762 61.323146"
 preserveAspectRatio="xMidYMid meet">
<metadata>
Created by Potrace Professional 1.1m
</metadata>
<g transform="translate(-0.053671,61.394911) rotate(-360.00) scale(0.011429,-0.011429)"
fill="#ffffff" stroke="none">
<path d="M2497 5365 c-647 -46 -1243 -319 -1705 -781 -619 -620 -895 -1482
-749 -2346 179 -1068 1000 -1933 2057 -2168 379 -85 796 -85 1176 0 728 161
1368 634 1742 1287 329 574 433 1268 288 1919 -287 1290 -1490 2184 -2809
2089z m386 -1355 c475 -66 891 -400 1075 -864 115 -291 127 -607 32 -891 -158
-471 -559 -814 -1049 -896 -140 -23 -386 -16 -508 14 -45 12 -84 23 -87 26 -3
3 9 30 27 60 55 93 83 174 132 372 26 105 49 197 52 205 4 10 17 1 42 -28 22
-26 66 -58 107 -78 61 -30 82 -35 171 -38 116 -5 201 12 299 61 257 126 426
453 425 824 0 346 -245 649 -598 739 -225 58 -498 30 -709 -72 -213 -102 -360
-269 -437 -493 -31 -91 -34 -112 -34 -226 0 -138 16 -221 63 -314 33 -68 107
-143 169 -175 70 -35 77 -28 108 103 l13 56 -42 60 c-77 109 -96 247 -56 403
77 300 316 481 636 481 298 0 503 -161 542 -426 23 -154 -23 -412 -99 -555
-103 -193 -282 -279 -430 -207 -70 35 -105 90 -110 173 -3 53 5 96 43 228 80
280 86 348 37 427 -24 39 -89 76 -135 76 -95 1 -201 -84 -237 -189 -27 -77
-27 -224 -1 -310 l20 -64 -70 -298 c-98 -415 -111 -482 -118 -611 -4 -62 -11
-113 -17 -113 -20 0 -168 87 -247 146 -254 190 -416 434 -504 757 -25 92 -27
116 -27 315 0 199 2 223 27 315 58 214 134 367 265 531 189 238 489 415 799
471 101 18 320 21 431 5z"/>
</g>
</svg>
