<?xml version="1.0" standalone="no"?>
<!DOCTYPE svg PUBLIC "-//W3C//DTD SVG 20010904//EN"
 "http://www.w3.org/TR/2001/REC-SVG-20010904/DTD/svg10.dtd">
<svg version="1.0" xmlns="http://www.w3.org/2000/svg"
 width="28.821576pt" height="28.834268pt" viewBox="0 0 28.821576 28.834268"
 preserveAspectRatio="xMidYMid meet">
<metadata>
Created by Potrace Professional 1.1m
</metadata>
<g transform="translate(-0.960701,29.790134) rotate(-360.00) scale(0.008151,-0.008151)"
fill="#ff1500" stroke="none">
<path d="M1584 3627 c-1414 -255 -1958 -1976 -945 -2988 1017 -1018 2742 -465
2989 957 206 1180 -865 2244 -2044 2031z m617 -188 c1166 -250 1659 -1621 916
-2548 -548 -683 -1540 -789 -2226 -239 -786 631 -786 1834 0 2465 245 196 494
300 839 349 82 11 367 -5 471 -27z"/>
<path d="M1449 2732 c-94 -41 -95 -44 -95 -848 0 -811 0 -807 101 -849 80 -34
128 -9 661 340 597 391 607 401 588 542 -12 89 -51 121 -591 477 -558 367
-576 377 -664 338z m612 -522 c458 -304 475 -320 409 -379 -40 -36 -832 -555
-869 -569 -67 -26 -70 -2 -70 622 0 624 2 643 70 623 14 -4 221 -138 460 -297z"/>
</g>
</svg>
