<?xml version="1.0" encoding="utf-8"?>
<svg viewBox="-52.053 -562.503 381.611 1666.164" xmlns="http://www.w3.org/2000/svg">
  <defs>
    <pattern id="pattern-0" x="0" y="0" width="25" height="25" patternUnits="userSpaceOnUse" viewBox="0 0 100 100">
      <rect x="0" y="0" width="50" height="100" style="fill: black;"/>
    </pattern>
  </defs>
  <g style="mix-blend-mode: darken;"/>
  <path d="M -52.053 -562.503 L 329.558 -562.503 L 329.558 1103.661 L -52.053 1103.661 L -52.053 -494.463 M 74.584 287.298 L 94.09 300.87 L 87.209 278.126 L 106.144 263.77 L 82.387 263.285 L 74.585 240.84 L 66.783 263.285 L 43.025 263.769 L 61.961 278.126 L 55.08 300.87 L 74.584 287.298 M 8.602 287.298 L 28.108 300.87 L 21.226 278.126 L 40.162 263.77 L 16.405 263.285 L 8.602 240.84 L 0.8 263.285 L -22.957 263.769 L -4.022 278.126 L -10.903 300.87 L 8.602 287.298 M 140.511 287.298 L 160.017 300.87 L 153.135 278.125 L 172.071 263.77 L 148.313 263.285 L 140.511 240.84 L 132.709 263.285 L 108.951 263.769 L 127.887 278.126 L 121.006 300.87 L 140.511 287.298 M 206.489 287.298 L 225.995 300.87 L 219.113 278.126 L 238.049 263.77 L 214.291 263.285 L 206.489 240.84 L 198.687 263.285 L 174.929 263.769 L 193.865 278.126 L 186.984 300.87 L 206.489 287.298 M 272.448 287.298 L 291.954 300.87 L 285.073 278.126 L 304.008 263.77 L 280.251 263.285 L 272.449 240.84 L 264.647 263.285 L 240.889 263.769 L 259.825 278.126 L 252.944 300.87 L 272.448 287.298" id="stars_border" style="stroke-linecap: square; stroke-linejoin: round; fill-rule: evenodd; paint-order: stroke markers; stroke-width: 2; stroke: rgb(255, 0, 0);"/>
</svg>