<?xml version="1.0" standalone="no"?>
<!DOCTYPE svg PUBLIC "-//W3C//DTD SVG 20010904//EN"
 "http://www.w3.org/TR/2001/REC-SVG-20010904/DTD/svg10.dtd">
<svg version="1.0" xmlns="http://www.w3.org/2000/svg"
 width="45.953824pt" height="10.768911pt" viewBox="0 0 45.953824 10.768911"
 preserveAspectRatio="xMidYMid meet">
<metadata>
Created by Potrace Professional 1.1m
</metadata>
<g transform="translate(-0.486176,11.126238) rotate(-360.00) scale(0.011429,-0.011429)"
fill="#ffffff" stroke="none">
<path d="M709 963 c-55 -19 -86 -35 -133 -72 l-38 -30 -49 17 c-90 31 -187 -1
-242 -78 -24 -35 -31 -56 -33 -109 -2 -63 -4 -66 -39 -84 -20 -10 -53 -37 -72
-61 -86 -100 -79 -241 15 -334 68 -66 107 -75 319 -75 l183 0 0 42 0 42 -179
0 c-203 0 -232 7 -278 67 -77 101 -25 230 108 269 45 14 46 14 37 51 -18 80
-11 125 26 161 29 29 41 34 84 34 39 0 60 -6 89 -29 21 -16 39 -28 41 -28 2 0
32 27 67 60 111 109 238 116 345 22 59 -52 82 -102 89 -192 6 -73 6 -74 43
-84 49 -14 113 -80 121 -126 12 -62 -3 -111 -48 -156 -23 -23 -41 -51 -41 -62
0 -11 -12 -32 -26 -46 -30 -30 -26 -31 38 -9 89 30 166 138 166 233 0 87 -65
193 -135 222 -27 11 -31 19 -36 70 -7 67 -60 172 -106 211 -83 70 -226 103
-316 74z"/>
<path d="M2604 520 l0 -268 58 0 58 0 0 268 0 268 -58 0 -58 0 0 -268z"/>
<path d="M3948 689 l0 -99 -39 20 c-50 26 -80 25 -135 -2 -54 -26 -76 -56 -91
-130 -22 -106 32 -212 119 -231 46 -11 97 2 128 30 l27 25 6 -25 c6 -22 13
-25 53 -25 l48 0 0 268 0 268 -58 0 -58 0 0 -99z m-28 -165 c24 -19 28 -29 28
-81 0 -79 -19 -107 -73 -107 -54 0 -84 36 -84 102 0 38 5 53 30 77 36 37 62
39 99 9z"/>
<path d="M2349 766 c-61 -15 -96 -37 -136 -83 -43 -50 -60 -103 -60 -182 0
-149 85 -242 234 -256 37 -3 84 -1 110 6 40 11 45 16 40 36 -3 12 -6 31 -6 41
0 15 -10 17 -71 12 -122 -9 -183 41 -189 156 -5 79 16 127 71 164 32 22 45 24
111 19 l75 -5 11 36 c9 32 8 37 -11 47 -30 16 -131 21 -179 9z"/>
<path d="M1440 580 c4 -167 7 -192 28 -235 28 -57 55 -78 122 -93 102 -23 183
13 226 100 24 48 27 66 30 233 l4 182 -58 0 -58 0 -3 -194 c-4 -185 -5 -196
-27 -218 -32 -31 -90 -31 -121 0 -23 22 -24 33 -27 218 l-3 194 -59 0 -58 0 4
-187z"/>
<path d="M1953 509 l0 -257 58 0 58 0 0 257 0 258 -58 0 -58 0 0 -258z"/>
<path d="M2926 615 c-79 -28 -122 -96 -122 -189 0 -192 267 -252 354 -80 55
109 8 236 -101 272 -46 15 -81 15 -131 -3z m118 -97 c16 -20 22 -43 22 -82 0
-68 -28 -110 -73 -110 -46 -1 -74 42 -74 110 0 68 28 110 74 110 19 0 37 -9
51 -28z"/>
<path d="M3256 491 c0 -144 12 -190 55 -222 41 -30 122 -29 164 2 38 28 43 28
43 2 0 -18 7 -21 47 -21 l47 0 0 184 0 184 -58 0 -57 0 0 -125 c0 -136 -10
-159 -65 -159 -51 0 -61 26 -61 161 l0 123 -58 0 -58 0 1 -129z"/>
<path d="M704 303 l0 -224 57 57 c32 31 59 55 62 52 2 -2 21 -39 42 -80 l38
-77 26 17 c15 10 27 19 27 22 0 2 -17 37 -37 77 l-37 73 75 3 74 3 -164 150
-163 150 0 -223z"/>
</g>
</svg>
