<?xml version="1.0" standalone="no"?>
<!DOCTYPE svg PUBLIC "-//W3C//DTD SVG 20010904//EN"
 "http://www.w3.org/TR/2001/REC-SVG-20010904/DTD/svg10.dtd">
<svg version="1.0" xmlns="http://www.w3.org/2000/svg"
 width="99.600000pt" height="9.515615pt" viewBox="0 0 99.600000 9.515615"
 preserveAspectRatio="xMidYMid meet">
<metadata>
Created by Potrace Professional 1.1m
</metadata>
<g transform="translate(-1.560000,12.960000) rotate(-360.00) scale(0.011429,-0.011429)"
fill="#ffffff" stroke="none">
<path d="M3234 719 l0 -414 73 0 74 0 2 238 3 239 92 -1 c82 -1 95 -4 118 -25
l27 -25 0 -213 0 -213 78 0 79 0 0 210 c0 233 -9 290 -53 334 -39 39 -96 54
-232 62 l-114 6 0 108 0 109 -73 0 -74 0 0 -415z"/>
<path d="M5387 719 l0 -414 78 0 79 0 0 414 0 415 -79 0 -78 0 0 -415z"/>
<path d="M1103 1055 l0 -68 199 0 c125 0 208 -4 225 -12 53 -24 62 -120 15
-162 -19 -18 -43 -21 -199 -24 l-177 -3 0 -67 0 -67 179 -3 179 -3 26 -30 c36
-42 35 -110 -2 -144 -27 -25 -31 -26 -236 -29 l-209 -3 0 -69 0 -68 254 4
c278 4 300 8 356 68 39 40 51 77 51 151 0 79 -19 125 -68 162 l-38 29 39 38
c49 48 67 91 67 163 0 69 -13 106 -50 145 -49 51 -106 61 -372 61 l-239 0 0
-69z"/>
<path d="M4163 927 c-117 -13 -190 -61 -238 -157 -82 -168 -19 -365 141 -434
38 -16 73 -22 137 -22 146 0 235 48 288 156 25 52 29 73 29 150 0 109 -29 182
-92 236 -60 52 -172 82 -265 71z m131 -142 c39 -23 64 -76 70 -146 5 -56 2
-74 -19 -113 -31 -59 -67 -86 -125 -92 -100 -10 -167 64 -167 186 0 122 68
196 170 185 27 -3 59 -12 71 -20z"/>
<path d="M4893 924 c-155 -19 -252 -137 -252 -305 0 -70 4 -89 34 -147 38 -76
98 -128 166 -147 54 -14 174 -15 228 0 85 23 160 99 191 193 20 60 10 201 -18
254 -60 116 -189 172 -349 152z m136 -134 c113 -56 113 -280 0 -340 -104 -56
-214 13 -227 143 -16 153 105 258 227 197z"/>
<path d="M7444 914 c-121 -37 -202 -154 -203 -294 -1 -115 54 -215 149 -271
46 -27 58 -29 165 -29 129 0 165 12 228 73 103 100 119 289 36 413 -24 36 -51
58 -100 84 -61 31 -74 34 -157 33 -50 0 -103 -4 -118 -9z m198 -127 c73 -44
99 -183 52 -272 -60 -112 -213 -113 -272 -1 -13 25 -19 59 -19 105 0 81 21
131 73 166 45 30 118 32 166 2z"/>
<path d="M137 685 c1 -255 7 -284 63 -330 52 -42 133 -50 490 -50 l308 0 0
304 0 305 -79 0 -79 0 -2 -239 -3 -239 -95 0 -94 0 -3 239 -3 239 -73 0 -73 0
-3 -239 -3 -239 -70 1 c-87 1 -118 19 -128 74 -3 22 -6 122 -6 221 l0 182 -74
0 -73 0 0 -229z"/>
<path d="M2043 902 c-56 -9 -92 -31 -125 -75 -27 -37 -29 -155 -4 -205 29 -54
50 -60 226 -65 144 -5 163 -8 176 -26 21 -28 19 -55 -6 -79 -19 -20 -35 -22
-216 -21 l-195 0 4 -61 3 -60 226 0 c250 0 269 4 316 70 34 48 39 137 11 202
-33 73 -77 89 -236 90 -145 0 -165 7 -165 58 0 25 6 39 20 47 12 6 95 11 195
11 l174 0 0 63 0 63 -176 -2 c-97 0 -200 -5 -228 -10z"/>
<path d="M2825 903 c-75 -9 -115 -31 -162 -85 -48 -56 -69 -122 -69 -209 0
-97 24 -162 83 -221 61 -61 105 -73 297 -81 l145 -6 0 64 0 63 -137 5 c-116 4
-142 8 -166 25 -49 36 -67 84 -62 164 9 131 58 165 246 165 l119 1 0 63 0 63
-119 -2 c-65 -1 -144 -5 -175 -9z"/>
<path d="M5833 906 c-64 -8 -116 -34 -141 -72 -33 -48 -37 -158 -8 -212 30
-56 62 -65 220 -65 127 -1 144 -3 169 -22 33 -26 35 -55 7 -83 -20 -20 -35
-22 -216 -21 l-194 0 0 -64 0 -64 228 3 c207 3 232 6 266 25 75 44 105 164 63
251 -34 71 -67 83 -234 90 -89 3 -148 10 -156 18 -19 18 -15 68 7 84 14 10 65
14 196 14 l176 0 0 63 0 63 -176 -2 c-97 -1 -190 -3 -207 -6z"/>
<path d="M6851 903 c-81 -9 -133 -35 -178 -87 -121 -141 -83 -390 72 -472 38
-21 62 -24 214 -27 l171 -4 0 59 0 59 -124 0 c-195 0 -244 36 -244 178 0 142
49 178 244 178 l124 1 0 63 0 63 -108 -2 c-59 -1 -136 -5 -171 -9z"/>
<path d="M7991 609 l0 -304 73 0 73 0 3 238 3 239 97 3 97 3 0 -242 0 -241 79
0 79 0 0 241 0 242 49 -1 c68 0 127 -17 139 -41 7 -12 11 -109 11 -231 l0
-210 79 0 79 0 -1 212 c0 247 -11 296 -74 346 -51 41 -142 50 -500 50 l-286 1
0 -305z"/>
<path d="M6363 378 l0 -63 63 0 63 0 0 63 0 63 -63 0 -63 0 0 -63z"/>
</g>
</svg>
